<svg version="1.1" id="Layer_1" xmlns="http://www.w3.org/2000/svg" xmlns:xlink="http://www.w3.org/1999/xlink" x="0px" y="0px"
	 width="100%" viewBox="0 0 100 100" enable-background="new 0 0 100 100" xml:space="preserve">
<path fill="#000000" opacity="1.000000" stroke="none" 
	d="
M57.000000,101.000000 
	C38.000004,101.000000 19.500006,101.000000 1.000007,101.000000 
	C1.000005,67.666679 1.000005,34.333351 1.000003,1.000021 
	C34.333317,1.000014 67.666634,1.000014 100.999969,1.000007 
	C100.999977,34.333313 100.999977,67.666626 100.999985,100.999969 
	C86.500000,101.000000 72.000000,101.000000 57.000000,101.000000 
M44.393791,88.087067 
	C49.235325,88.060226 54.187080,88.686867 58.899082,87.892082 
	C78.103142,84.652863 91.822433,65.414337 88.635788,46.007706 
	C87.490135,39.030643 86.984909,32.890190 88.679695,25.888309 
	C90.879669,16.799238 86.199707,8.260481 74.902115,9.139716 
	C70.497879,9.482476 66.217232,11.396815 61.876575,12.581735 
	C60.358604,12.996114 58.703224,13.965363 57.324345,13.673026 
	C35.073460,8.955626 12.980937,27.592230 13.145925,49.933151 
	C13.193071,56.317188 13.331569,62.411915 10.051707,68.102066 
	C9.741965,68.639435 9.633218,69.312271 9.516001,69.938103 
	C7.213638,82.230576 11.124314,90.515305 25.251631,88.728905 
	C31.416084,87.949417 37.299156,85.756981 44.393791,88.087067 
z"/>
<path fill="#22C3E6" opacity="1.000000" stroke="none" 
	d="
M43.953766,88.049454 
	C37.299156,85.756981 31.416084,87.949417 25.251631,88.728905 
	C11.124314,90.515305 7.213638,82.230576 9.516001,69.938103 
	C9.633218,69.312271 9.741965,68.639435 10.051707,68.102066 
	C13.331569,62.411915 13.193071,56.317188 13.145925,49.933151 
	C12.980937,27.592230 35.073460,8.955626 57.324345,13.673026 
	C58.703224,13.965363 60.358604,12.996114 61.876575,12.581735 
	C66.217232,11.396815 70.497879,9.482476 74.902115,9.139716 
	C86.199707,8.260481 90.879669,16.799238 88.679695,25.888309 
	C86.984909,32.890190 87.490135,39.030643 88.635788,46.007706 
	C91.822433,65.414337 78.103142,84.652863 58.899082,87.892082 
	C54.187080,88.686867 49.235325,88.060226 43.953766,88.049454 
M23.358690,43.142895 
	C20.415186,54.429070 23.615610,63.906651 31.576469,72.171799 
	C34.093632,74.785179 36.366520,74.869446 39.141750,72.981895 
	C53.695152,63.083477 66.063553,51.106209 74.944359,35.486153 
	C67.325653,25.071747 57.329506,20.085571 44.538734,23.133284 
	C34.242897,25.586517 26.881969,31.906658 23.358690,43.142895 
M73.947067,54.323936 
	C65.503540,62.806988 57.060017,71.290039 48.891861,79.496429 
	C65.543800,81.899139 82.085030,64.875824 79.192062,47.565811 
	C77.311760,49.778961 75.686562,51.691853 73.947067,54.323936 
M18.370609,77.861740 
	C20.320650,78.580452 22.270693,79.299171 24.220734,80.017883 
	C24.426134,79.544228 24.631536,79.070572 24.836937,78.596916 
	C22.961123,76.530861 21.085308,74.464806 18.387936,71.493881 
	C18.235338,74.062172 18.143473,75.608315 18.370609,77.861740 
M76.970428,23.458496 
	C77.648079,23.623268 78.325737,23.788040 79.003380,23.952810 
	C78.765381,22.246656 79.111504,19.707193 78.149986,19.033203 
	C76.770462,18.066196 74.437279,18.459661 72.511230,18.272322 
	C72.518440,18.644901 72.525650,19.017483 72.532860,19.390064 
	C73.842461,20.585045 75.152054,21.780025 76.970428,23.458496 
z"/>
<path fill="#000000" opacity="1.000000" stroke="none" 
	d="
M23.630611,42.830437 
	C26.881969,31.906658 34.242897,25.586517 44.538734,23.133284 
	C57.329506,20.085571 67.325653,25.071747 74.944359,35.486153 
	C66.063553,51.106209 53.695152,63.083477 39.141750,72.981895 
	C36.366520,74.869446 34.093632,74.785179 31.576469,72.171799 
	C23.615610,63.906651 20.415186,54.429070 23.630611,42.830437 
z"/>
<path fill="#000000" opacity="1.000000" stroke="none" 
	d="
M74.004211,53.964340 
	C75.686562,51.691853 77.311760,49.778961 79.192062,47.565811 
	C82.085030,64.875824 65.543800,81.899139 48.891861,79.496429 
	C57.060017,71.290039 65.503540,62.806988 74.004211,53.964340 
z"/>
<path fill="#000000" opacity="1.000000" stroke="none" 
	d="
M18.211109,77.508102 
	C18.143473,75.608315 18.235338,74.062172 18.387936,71.493881 
	C21.085308,74.464806 22.961123,76.530861 24.836937,78.596916 
	C24.631536,79.070572 24.426134,79.544228 24.220734,80.017883 
	C22.270693,79.299171 20.320650,78.580452 18.211109,77.508102 
z"/>
<path fill="#000000" opacity="1.000000" stroke="none" 
	d="
M76.716042,23.216751 
	C75.152054,21.780025 73.842461,20.585045 72.532860,19.390064 
	C72.525650,19.017483 72.518440,18.644901 72.511230,18.272322 
	C74.437279,18.459661 76.770462,18.066196 78.149986,19.033203 
	C79.111504,19.707193 78.765381,22.246656 79.003387,23.952810 
	C78.325737,23.788040 77.648079,23.623268 76.716042,23.216751 
z"/>
</svg>